<svg width="1200" height="240" viewBox="0 0 1200 240" fill="none" xmlns="http://www.w3.org/2000/svg">
<g clip-path="url(#clip0_3126_68)">
<rect width="1200" height="240" rx="48" fill="#1C0083"/>
<g filter="url(#filter0_n_3126_68)">
<g filter="url(#filter1_f_3126_68)">
<circle cx="1222" cy="145" r="262" fill="#FF33E4"/>
</g>
<g filter="url(#filter2_f_3126_68)">
<circle cx="698" cy="-33" r="141" fill="#AA33FF"/>
</g>
<g filter="url(#filter3_f_3126_68)">
<circle cy="463" r="536" fill="#FF33DD"/>
</g>
<g filter="url(#filter4_f_3126_68)">
<circle cx="1086.5" cy="366.5" r="166.5" fill="#FF3388"/>
</g>
<g filter="url(#filter5_f_3126_68)">
<circle cx="557" cy="452" r="201" fill="#FF33EB"/>
</g>
</g>
<path d="M227.887 138.785C238.267 138.785 261.079 142.031 275.818 166.935C297.88 204.214 328.933 208.525 329.852 246.566C330.771 284.606 284.44 292.214 271.524 292.214C252.233 292.214 242.072 284.606 227.887 284.606C213.702 284.606 203.54 292.214 184.25 292.214C171.334 292.214 125.003 284.606 125.922 246.566C126.841 208.525 157.894 204.214 179.956 166.935C194.695 142.031 217.507 138.785 227.887 138.785Z" fill="#FF3388" fill-opacity="0.125"/>
<path d="M110.185 101.506C129.714 101.506 150.759 138.532 154.312 155.523C158.978 177.84 150.508 204.214 125.908 204.214C108.41 204.214 82.2902 183.165 82.2891 155.523C82.2874 117.482 99.5339 101.506 110.185 101.506Z" fill="#FF3388" fill-opacity="0.125"/>
<path d="M345.782 101.506C356.433 101.506 373.679 117.482 373.678 155.523C373.677 183.165 347.557 204.214 330.058 204.214C305.459 204.214 296.989 177.84 301.655 155.523C305.208 138.532 326.253 101.506 345.782 101.506Z" fill="#FF3388" fill-opacity="0.125"/>
<path d="M192.099 18.5781C210.359 18.5781 217.46 47.7423 217.46 84.5144C217.46 113.932 197.679 135.742 177.898 135.742C159.131 135.742 137.829 115.454 137.829 84.5144C137.829 53.5751 171.05 18.5781 192.099 18.5781Z" fill="#FF3388" fill-opacity="0.125"/>
<path d="M263.868 18.5781C284.916 18.5781 318.138 53.5751 318.138 84.5144C318.138 115.454 296.836 135.742 278.069 135.742C258.288 135.742 238.507 113.932 238.507 84.5144C238.507 47.7423 245.608 18.5781 263.868 18.5781Z" fill="#FF3388" fill-opacity="0.125"/>
<path d="M227.887 138.785C238.267 138.785 261.079 142.031 275.818 166.935C297.88 204.214 328.933 208.525 329.852 246.566C330.771 284.606 284.44 292.214 271.524 292.214C252.233 292.214 242.072 284.606 227.887 284.606C213.702 284.606 203.54 292.214 184.25 292.214C171.334 292.214 125.003 284.606 125.922 246.566C126.841 208.525 157.894 204.214 179.956 166.935C194.695 142.031 217.507 138.785 227.887 138.785Z" fill="#FF3388" fill-opacity="0.125"/>
<path d="M110.185 101.506C129.714 101.506 150.759 138.532 154.312 155.523C158.978 177.84 150.508 204.214 125.908 204.214C108.41 204.214 82.2902 183.165 82.2891 155.523C82.2874 117.482 99.5339 101.506 110.185 101.506Z" fill="#FF3388" fill-opacity="0.125"/>
<path d="M345.782 101.506C356.433 101.506 373.679 117.482 373.678 155.523C373.677 183.165 347.557 204.214 330.058 204.214C305.459 204.214 296.989 177.84 301.655 155.523C305.208 138.532 326.253 101.506 345.782 101.506Z" fill="#FF3388" fill-opacity="0.125"/>
<path d="M192.099 18.5781C210.359 18.5781 217.46 47.7423 217.46 84.5144C217.46 113.932 197.679 135.742 177.898 135.742C159.131 135.742 137.829 115.454 137.829 84.5144C137.829 53.5751 171.05 18.5781 192.099 18.5781Z" fill="#FF3388" fill-opacity="0.125"/>
<path d="M263.868 18.5781C284.916 18.5781 318.138 53.5751 318.138 84.5144C318.138 115.454 296.836 135.742 278.069 135.742C258.288 135.742 238.507 113.932 238.507 84.5144C238.507 47.7423 245.608 18.5781 263.868 18.5781Z" fill="#FF3388" fill-opacity="0.125"/>
<path d="M232.959 148.926C243.339 148.926 266.151 152.172 280.89 177.075C302.952 214.355 334.005 218.666 334.924 256.706C335.843 294.746 289.512 302.354 276.596 302.354C257.306 302.354 247.144 294.746 232.959 294.746C218.774 294.746 208.613 302.354 189.322 302.354C176.406 302.354 130.075 294.746 130.994 256.706C131.913 218.666 162.966 214.355 185.029 177.075C199.767 152.172 222.579 148.926 232.959 148.926Z" fill="#FF3388" fill-opacity="0.0625"/>
<path d="M115.257 111.646C134.786 111.646 155.831 148.672 159.384 165.663C164.05 187.98 155.58 214.355 130.981 214.355C113.482 214.355 87.3625 193.306 87.3613 165.663C87.3597 127.622 104.606 111.646 115.257 111.646Z" fill="#FF3388" fill-opacity="0.0625"/>
<path d="M350.854 111.646C361.505 111.646 378.752 127.622 378.75 165.663C378.749 193.306 352.629 214.355 335.131 214.355C310.531 214.355 302.061 187.98 306.727 165.663C310.28 148.672 331.326 111.646 350.854 111.646Z" fill="#FF3388" fill-opacity="0.0625"/>
<path d="M197.172 28.7188C215.431 28.7188 222.532 57.8829 222.532 94.6551C222.532 124.073 202.751 145.883 182.97 145.883C164.203 145.883 142.901 125.594 142.901 94.6551C142.901 63.7157 176.123 28.7188 197.172 28.7188Z" fill="#FF3388" fill-opacity="0.0625"/>
<path d="M268.94 28.7188C289.989 28.7188 323.21 63.7157 323.21 94.6551C323.21 125.594 301.908 145.883 283.141 145.883C263.361 145.883 243.58 124.073 243.58 94.6551C243.58 57.8829 250.681 28.7188 268.94 28.7188Z" fill="#FF3388" fill-opacity="0.0625"/>
<path d="M238.031 159.074C248.412 159.074 271.224 162.32 285.962 187.224C308.025 224.503 339.078 228.815 339.996 266.855C340.915 304.895 294.584 312.503 281.668 312.503C262.378 312.503 252.216 304.895 238.031 304.895C223.846 304.895 213.685 312.503 194.395 312.503C181.479 312.503 135.148 304.895 136.066 266.855C136.985 228.815 168.038 224.503 190.101 187.224C204.839 162.32 227.651 159.074 238.031 159.074Z" fill="#FF3388" fill-opacity="0.03125"/>
<path d="M120.33 121.795C139.858 121.795 160.904 158.821 164.456 175.812C169.123 198.129 160.652 224.503 136.053 224.503C118.554 224.503 92.4348 203.454 92.4336 175.812C92.432 137.771 109.678 121.795 120.33 121.795Z" fill="#FF3388" fill-opacity="0.03125"/>
<path d="M355.926 121.795C366.578 121.795 383.824 137.771 383.822 175.812C383.821 203.454 357.702 224.503 340.203 224.503C315.604 224.503 307.133 198.129 311.8 175.812C315.352 158.821 336.398 121.795 355.926 121.795Z" fill="#FF3388" fill-opacity="0.03125"/>
<path d="M202.244 38.8672C220.503 38.8672 227.604 68.0313 227.604 104.804C227.604 134.221 207.823 156.031 188.042 156.031C169.276 156.031 147.973 135.743 147.973 104.804C147.973 73.8642 181.195 38.8672 202.244 38.8672Z" fill="#FF3388" fill-opacity="0.03125"/>
<path d="M274.012 38.8672C295.061 38.8672 328.283 73.8642 328.283 104.804C328.283 135.743 306.98 156.031 288.214 156.031C268.433 156.031 248.652 134.221 248.652 104.804C248.652 68.0313 255.753 38.8672 274.012 38.8672Z" fill="#FF3388" fill-opacity="0.03125"/>
<path d="M222.815 128.637C233.195 128.637 256.007 131.883 270.745 156.786C292.808 194.066 323.861 198.377 324.78 236.417C325.698 274.457 279.367 282.065 266.451 282.065C247.161 282.065 237 274.457 222.815 274.457C208.63 274.457 198.468 282.065 179.178 282.065C166.262 282.065 119.931 274.457 120.85 236.417C121.768 198.377 152.821 194.066 174.884 156.786C189.622 131.883 212.434 128.637 222.815 128.637Z" fill="#FF3388" fill-opacity="0.25"/>
<path d="M105.113 91.3573C124.641 91.3574 145.687 128.383 149.24 145.374C153.906 167.691 145.435 194.066 120.836 194.066C103.338 194.066 77.218 173.017 77.2168 145.374C77.2152 107.333 94.4617 91.3573 105.113 91.3573Z" fill="#FF3388" fill-opacity="0.25"/>
<path d="M340.709 91.3573C351.361 91.3573 368.607 107.333 368.606 145.374C368.604 173.017 342.485 194.066 324.986 194.066C300.387 194.066 291.917 167.691 296.583 145.374C300.136 128.383 321.181 91.3574 340.709 91.3573Z" fill="#FF3388" fill-opacity="0.25"/>
<path d="M187.027 8.42969C205.286 8.42969 212.387 37.5938 212.387 74.366C212.387 103.784 192.606 125.593 172.825 125.593C154.059 125.593 132.756 105.305 132.756 74.366C132.756 43.4267 165.978 8.42969 187.027 8.42969Z" fill="#FF3388" fill-opacity="0.25"/>
<path d="M258.795 8.42969C279.844 8.42969 313.066 43.4267 313.066 74.366C313.066 105.305 291.763 125.593 272.997 125.593C253.216 125.593 233.435 103.784 233.435 74.366C233.435 37.5938 240.536 8.42969 258.795 8.42969Z" fill="#FF3388" fill-opacity="0.25"/>
<path d="M217.742 118.496C228.123 118.496 250.935 121.742 265.673 146.646C287.736 183.925 318.789 188.236 319.707 226.277C320.626 264.317 274.295 271.925 261.379 271.925C242.089 271.925 231.927 264.317 217.742 264.317C203.557 264.317 193.396 271.925 174.106 271.925C161.19 271.925 114.859 264.317 115.777 226.277C116.696 188.236 147.749 183.925 169.812 146.646C184.55 121.742 207.362 118.496 217.742 118.496Z" fill="#FF3388" fill-opacity="0.5"/>
<path d="M100.041 81.2167C119.569 81.2167 140.615 118.242 144.167 135.234C148.834 157.551 140.363 183.925 115.764 183.925C98.2653 183.925 72.1457 162.876 72.1445 135.234C72.1429 97.1927 89.3894 81.2167 100.041 81.2167Z" fill="#FF3388" fill-opacity="0.5"/>
<path d="M335.637 81.2167C346.288 81.2167 363.535 97.1927 363.533 135.234C363.532 162.876 337.413 183.925 319.914 183.925C295.315 183.925 286.844 157.551 291.511 135.234C295.063 118.242 316.109 81.2167 335.637 81.2167Z" fill="#FF3388" fill-opacity="0.5"/>
<path d="M181.955 -1.71094C200.214 -1.71094 207.315 27.4532 207.315 64.2254C207.315 93.6431 187.534 115.453 167.753 115.453C148.987 115.453 127.684 95.1647 127.684 64.2254C127.684 33.286 160.906 -1.71094 181.955 -1.71094Z" fill="#FF3388" fill-opacity="0.5"/>
<path d="M253.723 -1.71094C274.772 -1.71094 307.994 33.286 307.994 64.2254C307.994 95.1647 286.691 115.453 267.925 115.453C248.144 115.453 228.363 93.6431 228.363 64.2254C228.363 27.4532 235.464 -1.71094 253.723 -1.71094Z" fill="#FF3388" fill-opacity="0.5"/>
<path d="M212.67 108.348C223.05 108.348 245.862 111.594 260.601 136.497C282.663 173.777 313.716 178.088 314.635 216.128C315.554 254.168 269.223 261.776 256.307 261.776C237.017 261.776 226.855 254.168 212.67 254.168C198.485 254.168 188.324 261.776 169.033 261.776C156.117 261.776 109.786 254.168 110.705 216.128C111.624 178.088 142.677 173.777 164.739 136.497C179.478 111.594 202.29 108.348 212.67 108.348Z" fill="#FF3388"/>
<path d="M94.9684 71.0682C114.497 71.0683 135.542 108.094 139.095 125.085C143.761 147.402 135.291 173.777 110.692 173.777C93.193 173.777 67.0734 152.728 67.0723 125.085C67.0706 87.0443 84.3171 71.0682 94.9684 71.0682Z" fill="#FF3388"/>
<path d="M330.565 71.0682C341.216 71.0682 358.463 87.0443 358.461 125.085C358.46 152.728 332.34 173.777 314.842 173.777C290.242 173.777 281.772 147.402 286.438 125.085C289.991 108.094 311.037 71.0683 330.565 71.0682Z" fill="#FF3388"/>
<path d="M176.883 -11.8594C195.142 -11.8594 202.243 17.3048 202.243 54.0769C202.243 83.4947 182.462 105.304 162.681 105.304C143.914 105.304 122.612 85.0163 122.612 54.0769C122.612 23.1376 155.834 -11.8594 176.883 -11.8594Z" fill="#FF3388"/>
<path d="M248.651 -11.8594C269.7 -11.8594 302.921 23.1376 302.921 54.0769C302.921 85.0163 281.619 105.304 262.852 105.304C243.072 105.304 223.291 83.4947 223.291 54.0769C223.291 17.3048 230.391 -11.8594 248.651 -11.8594Z" fill="#FF3388"/>
<path d="M207.598 98.207C217.978 98.207 240.79 101.453 255.528 126.357C277.591 163.636 308.644 167.947 309.563 205.987C310.482 244.028 264.151 251.636 251.235 251.636C231.944 251.636 221.783 244.028 207.598 244.028C193.413 244.028 183.251 251.636 163.961 251.636C151.045 251.636 104.714 244.028 105.633 205.987C106.551 167.947 137.605 163.636 159.667 126.357C174.406 101.453 197.218 98.207 207.598 98.207Z" fill="white"/>
<path d="M89.8961 60.9276C109.424 60.9277 130.47 97.9534 134.023 114.945C138.689 137.262 130.219 163.636 105.619 163.636C88.1207 163.636 62.0012 142.587 62 114.945C61.9984 76.9036 79.2449 60.9276 89.8961 60.9276Z" fill="white"/>
<path d="M325.493 60.9276C336.144 60.9276 353.39 76.9036 353.389 114.945C353.388 142.587 327.268 163.636 309.769 163.636C285.17 163.636 276.7 137.262 281.366 114.945C284.919 97.9534 305.964 60.9277 325.493 60.9276Z" fill="white"/>
<path d="M171.81 -22C190.07 -22 197.17 7.16414 197.17 43.9363C197.17 73.3541 177.39 95.1638 157.609 95.1638C138.842 95.1638 117.54 74.8757 117.54 43.9363C117.54 12.997 150.761 -22 171.81 -22Z" fill="white"/>
<path d="M243.578 -22C264.627 -22 297.849 12.997 297.849 43.9363C297.849 74.8757 276.547 95.1638 257.78 95.1638C237.999 95.1638 218.218 73.3541 218.218 43.9363C218.218 7.16414 225.319 -22 243.578 -22Z" fill="white"/>
<path d="M584.04 235.296H609.864L616.104 227.856V225.936L584.52 209.088V202.032L593.16 192H619.56L620.52 196.704H596.136L589.896 204.144V206.064L621.48 222.912V229.968L612.84 240H585L584.04 235.296ZM640.211 224.16V207.84L656.051 192H669.443L684.371 207.84V224.16L668.483 240H656.051L640.211 224.16ZM666.275 235.296L678.803 222.72V209.28L666.275 196.704H658.259L645.779 209.28V222.72L658.259 235.296H666.275ZM737.135 231.456L720.671 216.336H708.623V240H702.671V167.52L708.623 166.56V211.296H720.431L738.863 192H745.775L725.471 213.408L743.087 230.112V240H737.135V231.456ZM781.69 196.704H760.954L761.914 192H784.714L787.642 195.12V240H781.69V196.704ZM775.882 172.512L782.458 166.272L789.034 172.512L782.458 178.752L775.882 172.512ZM817.365 214.08V195.36L835.605 169.92H860.565L861.525 175.2H838.773L823.413 196.8V212.64L838.773 234.72H855.765L858.645 231.552V208.368H842.613V203.376H864.021V234.528L859.125 240H835.605L817.365 214.08ZM900.752 196.704H880.016L880.976 192H903.776L906.704 195.12V240H900.752V196.704ZM894.944 172.512L901.52 166.272L908.096 172.512L901.52 178.752L894.944 172.512ZM948.908 226.176V200.736H936.332V195.936H948.908V178.992L954.476 178.032V195.936H980.635V200.736H954.476V224.736L963.068 235.296H980.635V240H960.38L948.908 226.176Z" fill="white"/>
</g>
<defs>
<filter id="filter0_n_3126_68" x="-536" y="-174" width="2020" height="1173" filterUnits="userSpaceOnUse" color-interpolation-filters="sRGB">
<feFlood flood-opacity="0" result="BackgroundImageFix"/>
<feBlend mode="normal" in="SourceGraphic" in2="BackgroundImageFix" result="shape"/>
<feTurbulence type="fractalNoise" baseFrequency="0.66666668653488159 0.66666668653488159" stitchTiles="stitch" numOctaves="3" result="noise" seed="1920" />
<feColorMatrix in="noise" type="luminanceToAlpha" result="alphaNoise" />
<feComponentTransfer in="alphaNoise" result="coloredNoise1">
<feFuncA type="discrete" tableValues="1 1 1 1 1 1 1 1 1 1 1 1 1 1 1 1 1 1 1 1 1 1 1 1 1 1 1 1 1 1 1 1 1 1 1 1 1 1 1 1 1 1 1 1 1 1 1 1 1 1 1 0 0 0 0 0 0 0 0 0 0 0 0 0 0 0 0 0 0 0 0 0 0 0 0 0 0 0 0 0 0 0 0 0 0 0 0 0 0 0 0 0 0 0 0 0 0 0 0 0 "/>
</feComponentTransfer>
<feComposite operator="in" in2="shape" in="coloredNoise1" result="noise1Clipped" />
<feFlood flood-color="rgba(0, 0, 0, 0.2)" result="color1Flood" />
<feComposite operator="in" in2="noise1Clipped" in="color1Flood" result="color1" />
<feMerge result="effect1_noise_3126_68">
<feMergeNode in="shape" />
<feMergeNode in="color1" />
</feMerge>
</filter>
<filter id="filter1_f_3126_68" x="640" y="-437" width="1164" height="1164" filterUnits="userSpaceOnUse" color-interpolation-filters="sRGB">
<feFlood flood-opacity="0" result="BackgroundImageFix"/>
<feBlend mode="normal" in="SourceGraphic" in2="BackgroundImageFix" result="shape"/>
<feGaussianBlur stdDeviation="160" result="effect1_foregroundBlur_3126_68"/>
</filter>
<filter id="filter2_f_3126_68" x="237" y="-494" width="922" height="922" filterUnits="userSpaceOnUse" color-interpolation-filters="sRGB">
<feFlood flood-opacity="0" result="BackgroundImageFix"/>
<feBlend mode="normal" in="SourceGraphic" in2="BackgroundImageFix" result="shape"/>
<feGaussianBlur stdDeviation="160" result="effect1_foregroundBlur_3126_68"/>
</filter>
<filter id="filter3_f_3126_68" x="-1450" y="-987" width="2900" height="2900" filterUnits="userSpaceOnUse" color-interpolation-filters="sRGB">
<feFlood flood-opacity="0" result="BackgroundImageFix"/>
<feBlend mode="normal" in="SourceGraphic" in2="BackgroundImageFix" result="shape"/>
<feGaussianBlur stdDeviation="457" result="effect1_foregroundBlur_3126_68"/>
</filter>
<filter id="filter4_f_3126_68" x="600" y="-120" width="973" height="973" filterUnits="userSpaceOnUse" color-interpolation-filters="sRGB">
<feFlood flood-opacity="0" result="BackgroundImageFix"/>
<feBlend mode="normal" in="SourceGraphic" in2="BackgroundImageFix" result="shape"/>
<feGaussianBlur stdDeviation="160" result="effect1_foregroundBlur_3126_68"/>
</filter>
<filter id="filter5_f_3126_68" x="-64" y="-169" width="1242" height="1242" filterUnits="userSpaceOnUse" color-interpolation-filters="sRGB">
<feFlood flood-opacity="0" result="BackgroundImageFix"/>
<feBlend mode="normal" in="SourceGraphic" in2="BackgroundImageFix" result="shape"/>
<feGaussianBlur stdDeviation="210" result="effect1_foregroundBlur_3126_68"/>
</filter>
<clipPath id="clip0_3126_68">
<rect width="1200" height="240" rx="48" fill="white"/>
</clipPath>
</defs>
</svg>
